<?xml version="1.0" encoding="UTF-8" standalone="no"?>
<!-- Generator: Adobe Illustrator 19.2.1, SVG Export Plug-In . SVG Version: 6.00 Build 0)  -->

<svg
   xmlns:dc="http://purl.org/dc/elements/1.1/"
   xmlns:cc="http://creativecommons.org/ns#"
   xmlns:rdf="http://www.w3.org/1999/02/22-rdf-syntax-ns#"
   xmlns:svg="http://www.w3.org/2000/svg"
   xmlns="http://www.w3.org/2000/svg"
   xmlns:sodipodi="http://sodipodi.sourceforge.net/DTD/sodipodi-0.dtd"
   xmlns:inkscape="http://www.inkscape.org/namespaces/inkscape"
   version="1.1"
   id="Layer_2"
   x="0px"
   y="0px"
   viewBox="0 0 268.82791 38"
   xml:space="preserve"
   sodipodi:docname="logo.svg"
   width="268.82791"
   height="38"
   inkscape:version="0.92.4 (5da689c313, 2019-01-14)"><metadata
   id="metadata57"><rdf:RDF><cc:Work
       rdf:about=""><dc:format>image/svg+xml</dc:format><dc:type
         rdf:resource="http://purl.org/dc/dcmitype/StillImage" /><dc:title>logo</dc:title></cc:Work></rdf:RDF></metadata><defs
   id="defs55" /><sodipodi:namedview
   pagecolor="#ffffff"
   bordercolor="#666666"
   borderopacity="1"
   objecttolerance="10"
   gridtolerance="10"
   guidetolerance="10"
   inkscape:pageopacity="0"
   inkscape:pageshadow="2"
   inkscape:window-width="1366"
   inkscape:window-height="704"
   id="namedview53"
   showgrid="false"
   fit-margin-top="0"
   fit-margin-left="0"
   fit-margin-right="0"
   fit-margin-bottom="0"
   inkscape:zoom="2.641791"
   inkscape:cx="95.040067"
   inkscape:cy="19.082288"
   inkscape:window-x="0"
   inkscape:window-y="32"
   inkscape:window-maximized="1"
   inkscape:current-layer="Layer_2" />
<style
   type="text/css"
   id="style2">
	.st0{fill:#14BF98;}
	.st1{fill:#FFFFFF;}
</style>
<title
   id="title4">logo</title>
<text
   xml:space="preserve"
   style="font-style:normal;font-variant:normal;font-weight:bold;font-stretch:normal;font-size:41.03430176px;line-height:1.25;font-family:Arial;-inkscape-font-specification:'Arial Bold';letter-spacing:0px;word-spacing:0px;fill:#000000;fill-opacity:1;stroke:none;stroke-width:1.02585745"
   x="52.656483"
   y="33.999092"
   id="text63"><tspan
     sodipodi:role="line"
     id="tspan61"
     x="52.656483"
     y="33.999092"
     style="font-style:normal;font-variant:normal;font-weight:bold;font-stretch:normal;font-family:Arial;-inkscape-font-specification:'Arial Bold';fill:#ffffff;stroke-width:1.02585745">ChohoRich</tspan></text>
<polygon
   class="st0"
   points="0,19 1.9,22.3 5.7,22.3 7.7,19 5.7,15.7 1.9,15.7 "
   id="polygon6"
   style="fill:#14bf98" />
<polygon
   class="st0"
   points="4.6,11.1 6.5,14.4 10.3,14.4 12.2,11.1 10.3,7.8 6.5,7.8 "
   id="polygon8"
   style="fill:#14bf98" />
<polygon
   class="st0"
   points="9.1,3.3 11,6.6 14.8,6.6 16.7,3.3 14.8,0 11,0 "
   id="polygon10"
   style="fill:#14bf98" />
<polygon
   class="st0"
   points="18.1,3.3 20,6.6 23.9,6.6 25.8,3.3 23.9,0 20,0 "
   id="polygon12"
   style="fill:#14bf98" />
<polygon
   class="st0"
   points="14.7,11.1 16.2,13.6 19.1,13.6 20.6,11.1 19.1,8.6 16.2,8.6 "
   id="polygon14"
   style="fill:#14bf98" />
<polygon
   class="st0"
   points="23.8,11.1 25.2,13.6 28.2,13.6 29.6,11.1 28.2,8.6 25.2,8.6 "
   id="polygon16"
   style="fill:#14bf98" />
<polygon
   class="st0"
   points="15.4,27.7 16.5,29.7 18.8,29.7 19.9,27.7 18.8,25.7 16.5,25.7 "
   id="polygon18"
   style="fill:#14bf98" />
<polygon
   class="st0"
   points="24.4,27.7 25.6,29.7 27.9,29.7 29,27.7 27.9,25.7 25.6,25.7 "
   id="polygon20"
   style="fill:#14bf98" />
<polygon
   class="st0"
   points="20,36.3 21,38 22.9,38 23.9,36.3 22.9,34.7 21,34.7 "
   id="polygon22"
   style="fill:#14bf98" />
<polygon
   class="st0"
   points="27.2,3.3 29.1,6.6 32.9,6.6 34.9,3.3 32.9,0 29.1,0 "
   id="polygon24"
   style="fill:#14bf98" />
<polygon
   class="st0"
   points="9.8,18.9 11.3,21.6 14.5,21.6 16,18.9 14.5,16.2 11.3,16.2 "
   id="polygon26"
   style="fill:#14bf98" />
<polygon
   class="st0"
   points="27.9,18.9 29.5,21.6 32.6,21.6 34.2,18.9 32.6,16.2 29.5,16.2 "
   id="polygon28"
   style="fill:#14bf98" />
<polygon
   class="st0"
   points="19.3,18.9 20.6,21.2 23.3,21.2 24.6,18.9 23.3,16.6 20.6,16.6 "
   id="polygon30"
   style="fill:#14bf98" />
<polygon
   class="st0"
   points="31.7,11.1 33.6,14.4 37.4,14.4 39.3,11.1 37.4,7.8 33.6,7.8 "
   id="polygon32"
   style="fill:#14bf98" />
<polygon
   class="st0"
   points="5,27.7 6.6,30.4 9.7,30.4 11.3,27.7 9.7,25 6.6,25 "
   id="polygon34"
   style="fill:#14bf98" />
<polygon
   class="st0"
   points="9.7,36.5 10.6,38 12.4,38 13.3,36.5 12.4,34.9 10.6,34.9 "
   id="polygon36"
   style="fill:#14bf98" />
<polygon
   class="st0"
   points="36.3,19 38.2,22.3 42,22.3 43.9,19 42,15.7 38.2,15.7 "
   id="polygon38"
   style="fill:#14bf98" />
<polygon
   class="st0"
   points="32.6,27.7 34.2,30.4 37.3,30.4 38.9,27.7 37.3,25 34.2,25 "
   id="polygon40"
   style="fill:#14bf98" />
<polygon
   class="st0"
   points="29.5,35.8 30.8,38 33.3,38 34.5,35.8 33.3,33.7 30.8,33.7 "
   id="polygon42"
   style="fill:#14bf98" />




</svg>