<?xml version="1.0" encoding="UTF-8" standalone="no"?>
<!-- Created with Inkscape (http://www.inkscape.org/) -->

<svg
   xmlns:dc="http://purl.org/dc/elements/1.1/"
   xmlns:cc="http://creativecommons.org/ns#"
   xmlns:rdf="http://www.w3.org/1999/02/22-rdf-syntax-ns#"
   xmlns:svg="http://www.w3.org/2000/svg"
   xmlns="http://www.w3.org/2000/svg"
   xmlns:sodipodi="http://sodipodi.sourceforge.net/DTD/sodipodi-0.dtd"
   xmlns:inkscape="http://www.inkscape.org/namespaces/inkscape"
   width="40.610012mm"
   height="40.610367mm"
   viewBox="0 0 40.610012 40.610367"
   version="1.1"
   id="svg1010"
   inkscape:version="0.92.4 (5da689c313, 2019-01-14)"
   sodipodi:docname="wa.svg">
  <defs
     id="defs1004">
    <clipPath
       clipPathUnits="userSpaceOnUse"
       id="clipPath26">
      <path
         d="m 107.581,413.842 c -13.161,0 -23.929,-10.769 -23.929,-23.93 v 0 -67.257 c 0,-13.16 10.768,-23.929 23.929,-23.929 v 0 h 67.257 c 13.16,0 23.929,10.769 23.929,23.929 v 0 67.257 c 0,13.161 -10.769,23.93 -23.929,23.93 v 0 z"
         id="path24"
         inkscape:connector-curvature="0" />
    </clipPath>
    <linearGradient
       x1="0"
       y1="0"
       x2="1"
       y2="0"
       gradientUnits="userSpaceOnUse"
       gradientTransform="matrix(0,115.11457,115.11457,0,141.20924,298.72678)"
       spreadMethod="pad"
       id="linearGradient36">
      <stop
         style="stop-opacity:1;stop-color:#00b225"
         offset="0"
         id="stop32" />
      <stop
         style="stop-opacity:1;stop-color:#00d762"
         offset="1"
         id="stop34" />
    </linearGradient>
  </defs>
  <sodipodi:namedview
     id="base"
     pagecolor="#ffffff"
     bordercolor="#666666"
     borderopacity="1.0"
     inkscape:pageopacity="0.0"
     inkscape:pageshadow="2"
     inkscape:zoom="0.7"
     inkscape:cx="-32.6872"
     inkscape:cy="-31.566133"
     inkscape:document-units="mm"
     inkscape:current-layer="layer1"
     showgrid="false"
     fit-margin-top="0"
     fit-margin-left="0"
     fit-margin-right="0"
     fit-margin-bottom="0"
     inkscape:window-width="1366"
     inkscape:window-height="704"
     inkscape:window-x="0"
     inkscape:window-y="32"
     inkscape:window-maximized="1" />
  <metadata
     id="metadata1007">
    <rdf:RDF>
      <cc:Work
         rdf:about="">
        <dc:format>image/svg+xml</dc:format>
        <dc:type
           rdf:resource="http://purl.org/dc/dcmitype/StillImage" />
        <dc:title></dc:title>
      </cc:Work>
    </rdf:RDF>
  </metadata>
  <g
     inkscape:label="Layer 1"
     inkscape:groupmode="layer"
     id="layer1"
     transform="translate(-49.998565,-105.84958)">
    <g
       id="g1673">
      <g
         transform="matrix(0.35277777,0,0,-0.35277777,20.487999,251.84384)"
         id="g20">
        <g
           clip-path="url(#clipPath26)"
           id="g22">
          <g
             id="g28">
            <g
               id="g30">
              <path
                 inkscape:connector-curvature="0"
                 id="path38"
                 style="fill:url(#linearGradient36);stroke:none"
                 d="m 107.581,413.842 c -13.161,0 -23.929,-10.769 -23.929,-23.93 v 0 -67.257 c 0,-13.16 10.768,-23.929 23.929,-23.929 v 0 h 67.257 c 13.16,0 23.929,10.769 23.929,23.929 v 0 67.257 c 0,13.161 -10.769,23.93 -23.929,23.93 v 0 z" />
            </g>
          </g>
        </g>
      </g>
      <g
         transform="matrix(0.35277777,0,0,-0.35277777,77.419737,128.90526)"
         id="g48">
        <path
           inkscape:connector-curvature="0"
           id="path50"
           style="fill:#ffffff;fill-opacity:1;fill-rule:evenodd;stroke:none"
           d="M 0,0 C -0.239,0.391 -0.869,0.625 -1.81,1.094 -2.755,1.562 -7.401,3.832 -8.265,4.143 -9.13,4.454 -9.764,4.611 -10.39,3.675 -11.02,2.737 -12.831,0.625 -13.384,0 c -0.549,-0.627 -1.098,-0.703 -2.044,-0.234 -0.946,0.467 -3.991,1.461 -7.597,4.649 -2.806,2.488 -4.702,5.553 -5.256,6.491 -0.548,0.936 -0.054,1.443 0.413,1.911 0.427,0.422 0.947,1.094 1.419,1.64 0.473,0.549 0.63,0.941 0.945,1.567 0.315,0.626 0.158,1.171 -0.08,1.64 -0.235,0.467 -2.125,5.08 -2.914,6.958 -0.782,1.873 -1.57,1.803 -2.125,1.803 -0.549,0 -1.568,-0.163 -1.568,-0.163 0,0 -1.893,-0.235 -2.758,-1.172 -0.865,-0.937 -3.304,-3.206 -3.304,-7.814 0,-4.612 3.381,-9.07 3.853,-9.692 0.473,-0.626 6.532,-10.399 16.136,-14.151 9.603,-3.751 9.603,-2.5 11.335,-2.342 1.729,0.153 5.587,2.265 6.375,4.454 C 0.234,-2.266 0.234,-0.388 0,0 m -19.457,40.953 c -17.868,0 -32.397,-14.419 -32.397,-32.147 0,-7.03 2.29,-13.546 6.17,-18.848 l -4.045,-11.936 12.447,3.956 c 5.114,-3.356 11.241,-5.315 17.825,-5.315 17.86,0 32.394,14.42 32.394,32.143 0,17.728 -14.534,32.147 -32.394,32.147 M 19.074,8.806 c 0,-21.113 -17.251,-38.233 -38.531,-38.233 -6.758,0 -13.107,1.726 -18.626,4.758 l -21.335,-6.78 6.954,20.512 c -3.509,5.763 -5.527,12.521 -5.527,19.743 0,21.118 17.251,38.236 38.534,38.236 21.28,0 38.531,-17.118 38.531,-38.236" />
      </g>
    </g>
  </g>
</svg>
